<?xml version="1.0" standalone="no"?>
<!DOCTYPE svg PUBLIC "-//W3C//DTD SVG 20010904//EN"
 "http://www.w3.org/TR/2001/REC-SVG-20010904/DTD/svg10.dtd">
<svg version="1.0" xmlns="http://www.w3.org/2000/svg"
 width="437.000000pt" height="409.000000pt" viewBox="0 0 437.000000 409.000000"
 preserveAspectRatio="xMidYMid meet">
<metadata>
Created by potrace 1.16, written by Peter Selinger 2001-2019
</metadata>
<g transform="translate(0.000000,409.000000) scale(0.100000,-0.100000)"
fill="#000000" stroke="none">
<path d="M2360 3884 c-184 -22 -324 -88 -445 -209 -89 -89 -133 -157 -174
-267 l-27 -73 -49 -6 -50 -5 43 -8 c48 -10 56 -17 47 -47 -7 -20 -12 -21 -69
-15 -39 5 -66 13 -74 24 -12 16 -14 16 -26 0 -22 -29 -40 -246 -27 -320 15
-89 14 -194 -4 -323 -12 -86 -15 -213 -15 -599 l0 -490 26 -27 c30 -31 44 -30
44 5 0 39 35 159 66 221 30 64 153 277 164 285 3 3 15 21 27 40 29 48 37 261
17 410 -8 58 -17 141 -21 185 l-5 80 30 18 c39 22 68 22 99 -3 14 -11 32 -20
40 -20 7 0 18 -12 23 -26 12 -30 40 -275 40 -345 0 -27 3 -49 8 -48 8 0 124
132 175 199 30 40 35 56 46 145 7 55 21 119 31 143 19 41 20 42 69 42 28 0 62
-5 77 -12 26 -12 26 -12 19 -98 -3 -47 -11 -114 -16 -150 -14 -104 -24 -390
-12 -390 5 0 33 43 62 96 49 87 54 104 66 198 7 57 10 126 8 153 -6 58 9 79
62 89 48 9 81 -2 90 -28 5 -13 10 -150 12 -304 l5 -282 28 -27 c25 -24 30 -25
49 -13 34 20 151 222 151 260 0 6 -12 36 -27 66 -51 104 -42 300 18 375 17 22
29 27 65 27 39 0 47 -4 65 -32 18 -30 20 -44 15 -134 -3 -56 -13 -132 -21
-169 -15 -63 -15 -69 2 -87 10 -11 30 -26 44 -33 33 -17 65 -2 127 58 59 58
89 104 117 180 22 63 23 65 4 70 -18 5 -19 18 -19 284 -1 153 -5 298 -9 322
-14 68 -35 82 -125 84 l-77 2 -19 55 c-11 30 -19 56 -20 56 0 1 9 4 20 7 24 6
37 34 22 49 -8 8 -18 7 -35 -5 -23 -15 -24 -14 -66 48 -94 144 -271 266 -434
299 -84 18 -201 27 -257 20z m259 -86 c203 -62 377 -223 439 -407 l21 -61
-637 6 c-350 4 -639 8 -641 10 -9 8 43 122 84 185 100 149 275 261 455 289 76
12 200 2 279 -22z m-681 -824 c38 -26 28 -85 -19 -109 -102 -53 -183 56 -84
113 28 16 77 15 103 -4z"/>
<path d="M3324 2389 c-16 -17 -56 -48 -89 -70 -50 -32 -68 -39 -110 -39 -28 0
-56 5 -63 12 -16 16 -34 -1 -56 -59 -31 -81 -118 -216 -155 -240 -46 -31 -128
-31 -191 0 -49 24 -84 79 -95 150 -7 44 -18 47 -41 8 -38 -65 -128 -82 -184
-34 -46 39 -71 103 -77 206 -3 48 -10 87 -14 87 -5 0 -9 -3 -9 -8 0 -4 -43
-52 -95 -107 -52 -55 -97 -109 -99 -120 -3 -11 -7 -85 -10 -165 -9 -210 -51
-416 -102 -497 -8 -13 -13 -23 -12 -24 91 -17 944 -18 1176 -1 157 12 213 27
230 59 16 30 32 185 43 403 9 199 3 470 -11 470 -3 0 -19 -14 -36 -31z"/>
<path d="M1807 1883 c-8 -8 -77 -151 -77 -160 0 -4 -6 -14 -14 -22 -7 -9 -18
-29 -24 -46 -6 -16 -20 -54 -31 -83 -28 -75 -14 -102 37 -66 46 32 82 130 107
289 14 90 14 101 2 88z"/>
<path d="M870 993 c-79 -25 -99 -94 -38 -137 57 -40 148 -2 148 62 0 46 -64
90 -110 75z"/>
<path d="M828 771 l-27 -21 -3 -218 c-3 -245 -6 -255 -73 -273 -66 -18 -82
-26 -87 -46 -9 -34 9 -61 49 -72 105 -30 203 14 256 113 20 38 22 57 25 262 3
201 2 222 -15 243 -27 33 -90 39 -125 12z"/>
<path d="M1193 630 c-12 -5 -24 -17 -27 -28 -17 -53 29 -72 182 -72 128 0 175
16 170 57 -5 43 -37 53 -178 52 -69 0 -135 -4 -147 -9z"/>
</g>
</svg>
