<?xml version="1.0" standalone="no"?>
<!DOCTYPE svg PUBLIC "-//W3C//DTD SVG 20010904//EN"
 "http://www.w3.org/TR/2001/REC-SVG-20010904/DTD/svg10.dtd">
<svg version="1.0" xmlns="http://www.w3.org/2000/svg"
 width="300.000000pt" height="303.000000pt" viewBox="0 0 300.000000 303.000000"
 preserveAspectRatio="xMidYMid meet">
<metadata>
Created by potrace 1.10, written by Peter Selinger 2001-2011
</metadata>
<g transform="translate(0.000000,303.000000) scale(0.100000,-0.100000)"
fill="#0b490b" stroke="none">
<path d="M2614 2671 c-379 -150 -692 -332 -1009 -585 -142 -114 -428 -398
-554 -549 -310 -374 -560 -793 -705 -1181 -37 -97 -45 -162 -10 -76 31 77 149
311 193 385 24 39 80 125 124 193 l82 122 60 0 c114 0 332 58 456 120 61 31
132 89 149 121 8 15 3 14 -33 -6 -94 -53 -337 -116 -436 -114 -26 0 -4 9 74
29 180 46 314 105 462 202 204 134 353 292 628 668 239 327 428 537 600 665
90 67 101 75 95 75 -3 -1 -82 -32 -176 -69z m-117 -143 c-134 -132 -201 -213
-431 -521 -209 -279 -342 -436 -439 -519 -169 -145 -366 -252 -585 -317 -156
-47 -170 -55 -145 -84 16 -17 26 -19 93 -13 41 4 101 13 133 20 31 8 57 12 57
10 0 -20 -253 -84 -368 -92 l-87 -7 -47 -63 c-27 -35 -48 -61 -48 -58 0 11
115 195 188 301 79 115 228 308 297 385 22 25 105 112 185 193 365 374 774
651 1260 854 14 6 26 9 28 8 2 -2 -39 -45 -91 -97z"/>
</g>
</svg>
